<svg width="40" height="39" viewBox="0 0 40 39" fill="none" xmlns="http://www.w3.org/2000/svg">
<path d="M36.64 11.425L24.64 1.665C21.92 -0.555 18.1 -0.555 15.38 1.665L3.36 11.425C1.54 12.905 0.5 15.145 0.5 17.545V31.225C0.5 35.505 3.86 39.005 8 39.005H32C36.14 39.005 39.5 35.505 39.5 31.225V17.545C39.5 15.145 38.46 12.905 36.64 11.425ZM36.5 31.225C36.5 33.865 34.48 36.005 32 36.005H8C5.52 36.005 3.5 33.865 3.5 31.225V17.545C3.5 16.065 4.16 14.645 5.26 13.745L17.26 3.985C18.06 3.325 19.04 3.005 20 3.005C20.96 3.005 21.94 3.325 22.74 3.985L34.74 13.745C35.84 14.645 36.5 16.065 36.5 17.545V31.225Z" fill="#151D31"/>
</svg>
